<?xml version="1.0" encoding="UTF-8"?>
<svg xmlns="http://www.w3.org/2000/svg" xmlns:xlink="http://www.w3.org/1999/xlink" width="58px" height="58px" viewBox="0 0 58 58" version="1.1">
<g id="surface1">
<path style=" stroke:none;fill-rule:nonzero;fill:rgb(12.54902%,11.764706%,25.490196%);fill-opacity:1;" d="M 55.105469 13.839844 L 51.269531 13.839844 C 45.707031 11.402344 40.984375 10.148438 37.222656 10.148438 C 32.347656 10.148438 30.0625 12.234375 29.03125 13.828125 C 28 12.234375 25.71875 10.148438 20.839844 10.148438 C 17.078125 10.148438 12.355469 11.402344 6.789062 13.839844 L 2.953125 13.839844 C 1.324219 13.839844 0 15.140625 0 16.746094 L 0 45.007812 C 0 46.613281 1.324219 47.914062 2.953125 47.914062 L 55.105469 47.914062 C 56.738281 47.914062 58.0625 46.613281 58.0625 45.007812 L 58.0625 16.746094 C 58.0625 15.140625 56.738281 13.839844 55.105469 13.839844 Z M 28.230469 15.605469 C 28.222656 15.648438 28.21875 15.695312 28.21875 15.738281 L 28.21875 42.398438 C 26.925781 40.929688 24.761719 39.808594 21.140625 39.808594 C 14.675781 39.808594 6.5625 43.292969 3.667969 44.640625 L 3.667969 16.90625 C 6.148438 15.664062 8.464844 14.648438 10.625 13.839844 C 14.589844 12.359375 18.015625 11.597656 20.839844 11.597656 C 24.304688 11.597656 26.195312 12.738281 27.222656 13.839844 C 27.8125 14.480469 28.117188 15.101562 28.261719 15.488281 C 28.242188 15.554688 28.230469 15.601562 28.230469 15.605469 Z M 54.394531 44.640625 C 51.496094 43.292969 43.382812 39.808594 36.921875 39.808594 C 33.296875 39.808594 31.136719 40.929688 29.84375 42.398438 C 29.796875 42.449219 29.738281 42.5 29.695312 42.554688 L 29.695312 15.820312 C 29.710938 15.757812 29.746094 15.644531 29.800781 15.496094 C 29.949219 15.109375 30.257812 14.484375 30.855469 13.84375 C 31.886719 12.738281 33.777344 11.601562 37.222656 11.601562 C 40.042969 11.601562 43.46875 12.359375 47.4375 13.84375 C 49.597656 14.652344 51.914062 15.664062 54.394531 16.90625 Z M 54.394531 44.640625 "/>
</g>
</svg>
