<?xml version="1.0" encoding="UTF-8"?>
<svg xmlns="http://www.w3.org/2000/svg" xmlns:xlink="http://www.w3.org/1999/xlink" width="58px" height="58px" viewBox="0 0 58 57" version="1.1">
<g id="surface1">
<path style=" stroke:none;fill-rule:nonzero;fill:rgb(0%,0%,0%);fill-opacity:1;" d="M 55.105469 13.339844 L 51.269531 13.339844 C 45.707031 10.902344 40.984375 9.648438 37.222656 9.648438 C 32.347656 9.648438 30.0625 11.734375 29.03125 13.328125 C 28 11.734375 25.71875 9.648438 20.839844 9.648438 C 17.078125 9.648438 12.355469 10.902344 6.789062 13.339844 L 2.953125 13.339844 C 1.324219 13.339844 0 14.640625 0 16.246094 L 0 44.507812 C 0 46.113281 1.324219 47.414062 2.953125 47.414062 L 55.105469 47.414062 C 56.738281 47.414062 58.0625 46.113281 58.0625 44.507812 L 58.0625 16.246094 C 58.0625 14.640625 56.738281 13.339844 55.105469 13.339844 Z M 28.230469 15.105469 C 28.222656 15.148438 28.21875 15.195312 28.21875 15.238281 L 28.21875 41.898438 C 26.925781 40.429688 24.761719 39.308594 21.140625 39.308594 C 14.675781 39.308594 6.5625 42.792969 3.667969 44.140625 L 3.667969 16.40625 C 6.148438 15.164062 8.464844 14.148438 10.625 13.339844 C 14.589844 11.859375 18.015625 11.097656 20.839844 11.097656 C 24.304688 11.097656 26.195312 12.238281 27.222656 13.339844 C 27.8125 13.980469 28.117188 14.601562 28.261719 14.988281 C 28.242188 15.054688 28.230469 15.101562 28.230469 15.105469 Z M 54.394531 44.140625 C 51.496094 42.792969 43.382812 39.308594 36.921875 39.308594 C 33.296875 39.308594 31.136719 40.429688 29.84375 41.898438 C 29.796875 41.949219 29.738281 42 29.695312 42.054688 L 29.695312 15.320312 C 29.710938 15.257812 29.746094 15.144531 29.800781 14.996094 C 29.949219 14.609375 30.257812 13.984375 30.855469 13.34375 C 31.886719 12.238281 33.777344 11.101562 37.222656 11.101562 C 40.042969 11.101562 43.46875 11.859375 47.4375 13.34375 C 49.597656 14.152344 51.914062 15.164062 54.394531 16.40625 Z M 54.394531 44.140625 "/>
</g>
</svg>
